<svg id="Laag_1" data-name="Laag 1" xmlns="http://www.w3.org/2000/svg" viewBox="0 0 129.49 135.89"><defs><style>.cls-1{fill:#004d8e;}.cls-2{fill:none;}</style></defs><path class="cls-1" d="M60.22,15.16a49.49,49.49,0,0,0,5.56.25H71.6l-1.71.31c-1.14.2-2.31.41-3.15.61l-.16,0c-1.64.39-4.12,1-4.92,2.74a2.41,2.41,0,0,0,.07,2.14,2.61,2.61,0,0,0,1.85,1.36,4.76,4.76,0,0,0,.88.09A8.76,8.76,0,0,0,66,22.54c2.58-.51,2.6.16,2.6.23,0,.44-.84,1.2-1.21,1.52l-.19.17a3.28,3.28,0,0,1-.33.3c-.74.66-1.75,1.57-1.63,2.55a.25.25,0,0,0,.24.21h0a.24.24,0,0,0,.23-.22c0-.41.42-.76.79-1.06s.73-.55,1.1-.81l.46-.32h0c.67-.48,1.8-1.29,2-2.26a1.39,1.39,0,0,0-.29-1.11c-.71-1-2-1-3.15-1H65.26a8.14,8.14,0,0,1-.93-.05c-.53-.07-.72-.36-.59-.57.37-.64,2.25-1.2,5.65-1.64l.42-.06.62-.09a26.78,26.78,0,0,0,3.63-.72c2.12-.62,2.53-1.69,2.48-2.5v0s0,0,0,0h0a2.33,2.33,0,0,0-1.6-1.89,12.31,12.31,0,0,0-4.3-.53h-.36c-1.19,0-2.39,0-3.56,0-1,0-2.07.05-3.11.05s-2,0-2.79-.07a18.8,18.8,0,0,1-2.18-.24,3.77,3.77,0,0,1-1.76-.63c-.42-.35,0-1.12.3-1.48A6.43,6.43,0,0,1,60.92,8.4a22.11,22.11,0,0,1,4.33-.46A29.75,29.75,0,0,1,68.41,8h0a.24.24,0,0,0,.24-.24.24.24,0,0,0-.19-.23,21.8,21.8,0,0,0-6-.85c-.6,0-1.21,0-1.79.08-2.26.21-5.15,1-6.12,3.66a2.62,2.62,0,0,0,.14,2.38c.93,1.52,3.49,2.11,5.48,2.34"/><path class="cls-1" d="M90.05,97.06l0,0L79.51,86l-4.27,1.65,8.93,13.4.06,0a.7.7,0,0,0,.54.27h4.79a.69.69,0,0,0,.69-.68V97.54A.68.68,0,0,0,90.05,97.06Zm-10.81-9.8,9.26,9.59H84.77a.69.69,0,0,0-.69.69v1.53L76.83,88.18Zm10,12.32a.69.69,0,0,1-.69.69H85.81a.69.69,0,0,1-.69-.69v-1a.69.69,0,0,1,.69-.69h2.71a.69.69,0,0,1,.69.69Z"/><path class="cls-1" d="M72.32,40.67v-1c1.33-1.3,4.3-4.5,3.42-6.34-.42-.88-1.53-1.25-3.38-1.11v-.54a61.67,61.67,0,0,1-6.72.4,32.26,32.26,0,0,1-7.23-.75l0,9.25a16.38,16.38,0,0,1,13.95.12Zm0-7.27c1.86-.16,2.24.27,2.31.42.33.69-.82,2.44-2.33,4.08C72.34,36.23,72.35,34.41,72.35,33.4Z"/><path class="cls-1" d="M21.13,106a2.4,2.4,0,0,1,.75.5,2.54,2.54,0,0,1,.5.74,2.34,2.34,0,0,1,.18.91v.7a.32.32,0,0,1-.24.34l-1.69.44q-.24.07-.24-.18v-1.21a.4.4,0,0,0-.13-.31.42.42,0,0,0-.31-.13H19.8a.42.42,0,0,0-.32.13.44.44,0,0,0-.13.31V110a1.06,1.06,0,0,0,.08.35.75.75,0,0,0,.2.3l2.43,1.82a1.12,1.12,0,0,1,.38.53,2.66,2.66,0,0,1,.12.6v3.19a2.31,2.31,0,0,1-.18.91,2.32,2.32,0,0,1-1.25,1.24,2.12,2.12,0,0,1-.91.19h-.7a2.15,2.15,0,0,1-.91-.19,2.35,2.35,0,0,1-1.24-1.24,2.15,2.15,0,0,1-.19-.91V115a.32.32,0,0,1,.24-.33l1.69-.45c.16-.05.24,0,.24.19v2.28a.44.44,0,0,0,.13.31.42.42,0,0,0,.32.13H20a.42.42,0,0,0,.31-.13.4.4,0,0,0,.13-.31V114.2a2.58,2.58,0,0,0-.07-.43.71.71,0,0,0-.23-.33L17.7,111.6a1.69,1.69,0,0,1-.4-.52,1.63,1.63,0,0,1-.12-.68v-2.23a2.18,2.18,0,0,1,.19-.91,2.36,2.36,0,0,1,.5-.74,2.25,2.25,0,0,1,.74-.5,2.15,2.15,0,0,1,.91-.19h.7a2.12,2.12,0,0,1,.91.19"/><path class="cls-1" d="M29.54,106.22v1.65a.23.23,0,0,1-.26.26H28v10.56a.23.23,0,0,1-.26.26H26.05a.26.26,0,0,1-.26-.26V108.13h-1.3a.23.23,0,0,1-.26-.26v-1.65a.23.23,0,0,1,.26-.26h4.79a.23.23,0,0,1,.26.26"/><path class="cls-1" d="M36.59,118.69c0,.17-.05.26-.22.26H34.68a.26.26,0,0,1-.28-.26l-.15-2H33.1l-.15,2a.26.26,0,0,1-.28.26H31c-.18,0-.25-.09-.23-.26l1.39-12.47a.28.28,0,0,1,.3-.26H34.9a.28.28,0,0,1,.3.26Zm-2.49-4.08-.35-5H33.6l-.35,5Z"/><path class="cls-1" d="M43.12,106.22v1.65a.23.23,0,0,1-.26.26H41.54v10.56a.23.23,0,0,1-.26.26H39.63a.23.23,0,0,1-.17-.07.25.25,0,0,1-.09-.19V108.13h-1.3a.23.23,0,0,1-.26-.26v-1.65a.23.23,0,0,1,.26-.26h4.79a.23.23,0,0,1,.26.26"/><rect class="cls-1" x="45.35" y="105.96" width="2.17" height="12.99" rx="0.26"/><path class="cls-1" d="M55.31,116.74a2.15,2.15,0,0,1-.19.91,2.25,2.25,0,0,1-.5.74,2.36,2.36,0,0,1-.74.5,2.15,2.15,0,0,1-.91.19h-.7a2.12,2.12,0,0,1-.91-.19,2.25,2.25,0,0,1-.74-.5,2.28,2.28,0,0,1-.51-.74,2.31,2.31,0,0,1-.18-.91v-8.57a2.34,2.34,0,0,1,.18-.91,2.39,2.39,0,0,1,.51-.74,2.25,2.25,0,0,1,.74-.5,2.12,2.12,0,0,1,.91-.19H53a2.15,2.15,0,0,1,.91.19,2.35,2.35,0,0,1,1.24,1.24,2.18,2.18,0,0,1,.19.91Zm-2.17-8.48A.44.44,0,0,0,53,108a.42.42,0,0,0-.32-.13h-.15a.42.42,0,0,0-.31.13.4.4,0,0,0-.13.31v8.39a.4.4,0,0,0,.13.31.42.42,0,0,0,.31.13h.15A.42.42,0,0,0,53,117a.44.44,0,0,0,.13-.31Z"/><path class="cls-1" d="M63.66,106.22v12.47a.23.23,0,0,1-.26.26H62.21a.35.35,0,0,1-.21-.07.37.37,0,0,1-.14-.17l-2-6.14v6.12a.23.23,0,0,1-.26.26H58a.23.23,0,0,1-.26-.26V106.22A.23.23,0,0,1,58,106h1.23a.37.37,0,0,1,.21.08.42.42,0,0,1,.14.16l1.93,6v-5.94a.23.23,0,0,1,.26-.26H63.4a.23.23,0,0,1,.26.26"/><path class="cls-1" d="M74.49,112.47a1.56,1.56,0,0,1,.39.62,2.13,2.13,0,0,1,.13.78v2.74a2.31,2.31,0,0,1-.18.91,2.32,2.32,0,0,1-1.25,1.24,2.12,2.12,0,0,1-.91.19H69.89a.23.23,0,0,1-.26-.26V106.22a.23.23,0,0,1,.26-.26h2.78a2.12,2.12,0,0,1,.91.19,2.4,2.4,0,0,1,.75.5,2.54,2.54,0,0,1,.5.74,2.34,2.34,0,0,1,.18.91v1.86a2,2,0,0,1-.52,1.42,2.23,2.23,0,0,1-.67.49,1.76,1.76,0,0,1,.67.4m-1.65-4.08a.4.4,0,0,0-.13-.31.42.42,0,0,0-.31-.13h-.6v3.15h.6a.42.42,0,0,0,.31-.13.4.4,0,0,0,.13-.31Zm0,5.18a.44.44,0,0,0-.13-.32.46.46,0,0,0-.31-.13h-.6V117h.6a.46.46,0,0,0,.31-.13.44.44,0,0,0,.13-.32Z"/><path class="cls-1" d="M82.53,118.69c0,.17,0,.26-.22.26H80.62a.26.26,0,0,1-.28-.26l-.15-2H79l-.15,2a.26.26,0,0,1-.28.26H76.92c-.17,0-.24-.09-.22-.26l1.39-12.47a.28.28,0,0,1,.3-.26h2.45a.28.28,0,0,1,.3.26ZM80,114.61l-.35-5h-.15l-.35,5Z"/><path class="cls-1" d="M89.5,117v1.65a.23.23,0,0,1-.26.26H85a.23.23,0,0,1-.26-.26V106.22A.23.23,0,0,1,85,106h1.65a.23.23,0,0,1,.26.26v10.56h2.3a.23.23,0,0,1,.26.26"/><path class="cls-1" d="M94.77,106a2.15,2.15,0,0,1,.91.19,2.25,2.25,0,0,1,.74.5,2.36,2.36,0,0,1,.5.74,2.18,2.18,0,0,1,.19.91v8.31a2.15,2.15,0,0,1-.19.91,2.35,2.35,0,0,1-1.24,1.24,2.15,2.15,0,0,1-.91.19H92a.23.23,0,0,1-.26-.26V106.22A.23.23,0,0,1,92,106Zm.17,2.43a.4.4,0,0,0-.13-.31.42.42,0,0,0-.32-.13H93.9v9h.59a.42.42,0,0,0,.32-.13.4.4,0,0,0,.13-.31Z"/><path class="cls-1" d="M104.07,117v1.65a.23.23,0,0,1-.26.26h-4a.23.23,0,0,1-.26-.26V106.22a.23.23,0,0,1,.26-.26h4a.23.23,0,0,1,.26.26v1.65a.23.23,0,0,1-.26.26h-2.12v2.67h1.84a.23.23,0,0,1,.26.26v1.66a.23.23,0,0,1-.26.26h-1.84v3.8h2.12a.23.23,0,0,1,.26.26"/><path class="cls-1" d="M112.31,118.69c0,.17,0,.26-.19.26h-1.69a.35.35,0,0,1-.21-.07.37.37,0,0,1-.14-.19l-1.36-4.55v4.62a.24.24,0,0,1-.26.19h-1.65a.23.23,0,0,1-.26-.26V106.22a.23.23,0,0,1,.26-.26h2.79a2.18,2.18,0,0,1,.91.19,2.36,2.36,0,0,1,.74.5,2.54,2.54,0,0,1,.5.74,2.34,2.34,0,0,1,.18.91v3a2.21,2.21,0,0,1-.35,1.24,2.36,2.36,0,0,1-.93.84Zm-3.59-7h.6a.44.44,0,0,0,.31-.13.42.42,0,0,0,.13-.32v-2.84a.44.44,0,0,0-.44-.44h-.6Z"/><path class="cls-1" d="M81.92,76.36a.53.53,0,0,0-.54-.39H65.91V91.64l17.31-5.58a.46.46,0,0,0,.36-.5ZM69.44,89.24h0a.82.82,0,0,1-.82-.76L67.83,77.6a.82.82,0,0,1,.76-.87.77.77,0,0,1,.57.18.81.81,0,0,1,.3.58l.75,10.88A.83.83,0,0,1,69.44,89.24Zm3.78-1.32h-.08a.82.82,0,0,1-.81-.75l-.92-9.55a.84.84,0,0,1,.18-.61.85.85,0,0,1,.56-.29.81.81,0,0,1,.89.74L74,87A.82.82,0,0,1,73.22,87.92ZM77,86.61h-.1a.84.84,0,0,1-.82-.71L75,77.65a.83.83,0,0,1,.71-.92.84.84,0,0,1,.92.71l1.07,8.25A.82.82,0,0,1,77,86.61Zm3.34-1.22h-.12a.83.83,0,0,1-.81-.7l-1-7a.81.81,0,0,1,.69-.93.85.85,0,0,1,.93.69l1,7A.82.82,0,0,1,80.31,85.39Z"/><path class="cls-1" d="M63.77,76H48.3a.53.53,0,0,0-.54.39l-1.65,9.2a.45.45,0,0,0,.35.5l17.31,5.58ZM51.19,84.69a.83.83,0,0,1-.81.7h-.12a.83.83,0,0,1-.7-.93l1-7a.86.86,0,0,1,.92-.7.82.82,0,0,1,.7.94Zm3.32,1.22a.82.82,0,0,1-.81.71h-.11a.82.82,0,0,1-.7-.92L54,77.44a.78.78,0,0,1,.32-.54.82.82,0,0,1,.6-.17.83.83,0,0,1,.71.92Zm3.73,1.27a.82.82,0,0,1-.81.75h-.07a.82.82,0,0,1-.75-.89l.92-9.56a.84.84,0,0,1,.87-.74A.83.83,0,0,1,59,77a.81.81,0,0,1,.18.6Zm2.94,2.06h-.07a.82.82,0,0,1-.55-.28.85.85,0,0,1-.2-.59l.74-10.88a.83.83,0,0,1,.29-.57.79.79,0,0,1,.6-.19.82.82,0,0,1,.75.87L62,88.48A.82.82,0,0,1,61.18,89.24Z"/><polygon class="cls-1" points="48.77 97.41 82.35 97.41 79.05 92.46 52.08 92.46 48.77 97.41"/><path class="cls-1" d="M118.07,95.41H94l-3.17-2.75a.82.82,0,0,0-.54-.2H85l4.75,4.91-.06,0h28.4a4,4,0,0,1,4,4v21.84a4,4,0,0,1-4,4H13.27a4,4,0,0,1-4-4V101.41a4,4,0,0,1,4-4H41.45l-.05,0,4.77-4.91H40.09a.82.82,0,0,0-.54.2l-3.17,2.75H13.27a6,6,0,0,0-6,6v21.84a6,6,0,0,0,6,6h104.8a6,6,0,0,0,6-6V101.41A6,6,0,0,0,118.07,95.41Z"/><path class="cls-1" d="M75.8,45.17a14.82,14.82,0,0,0-10.57-4.4,13.88,13.88,0,0,0-1.44.07A14.86,14.86,0,1,0,80,57.22h0A14.89,14.89,0,0,0,75.8,45.17ZM73,45.35a.7.7,0,0,1,1-.08.71.71,0,0,1,.09,1,.7.7,0,0,1-1,.08A.69.69,0,0,1,73,45.35Zm-7.84-3.3a.7.7,0,0,1,.69.7.7.7,0,0,1-1.39,0A.7.7,0,0,1,65.18,42.05Zm-8.83,3.22a.7.7,0,1,1-.08,1A.7.7,0,0,1,56.35,45.27ZM52.22,54.2a.69.69,0,0,1-.56-.8.7.7,0,1,1,1.37.24A.69.69,0,0,1,52.22,54.2Zm2,8.7a.69.69,0,0,1-1-.26.69.69,0,1,1,1.2-.69A.69.69,0,0,1,54.24,62.9Zm7.13,5.36a.69.69,0,1,1-.41-.89A.68.68,0,0,1,61.37,68.26Zm8.5.42a.69.69,0,0,1-.89-.42.7.7,0,1,1,.89.42ZM65.13,66.5A10.65,10.65,0,1,1,75.78,55.85,10.64,10.64,0,0,1,65.13,66.5Zm11.93-3.86a.68.68,0,0,1-.94.26.69.69,0,0,1-.26-.95.7.7,0,0,1,1-.26A.69.69,0,0,1,77.06,62.64Zm1.07-8.44a.68.68,0,0,1-.8-.56.69.69,0,0,1,.56-.81.71.71,0,0,1,.81.57A.69.69,0,0,1,78.13,54.2Z"/><path class="cls-1" d="M63.12,50.91a1.75,1.75,0,0,1,.57.39,2,2,0,0,1,.39.56,1.86,1.86,0,0,1,.14.7v.54a.24.24,0,0,1-.19.26l-1.29.34c-.12,0-.19,0-.19-.14v-.93a.33.33,0,0,0-.1-.24.33.33,0,0,0-.24-.1H62.1a.33.33,0,0,0-.24.1.33.33,0,0,0-.1.24v1.3a1.86,1.86,0,0,0,.05.27,1,1,0,0,0,.16.23l1.87,1.39a1,1,0,0,1,.29.41,2.68,2.68,0,0,1,.09.46v2.44a1.82,1.82,0,0,1-.14.7,1.87,1.87,0,0,1-1,1,1.77,1.77,0,0,1-.69.14h-.54a1.82,1.82,0,0,1-.7-.14,1.92,1.92,0,0,1-.57-.39,1.73,1.73,0,0,1-.38-.57,1.66,1.66,0,0,1-.15-.7V57.77a.25.25,0,0,1,.19-.26l1.29-.34c.13,0,.19,0,.19.14v1.75a.34.34,0,0,0,.34.35h.11a.34.34,0,0,0,.34-.35V57.19a1,1,0,0,0,0-.33.62.62,0,0,0-.17-.26l-1.84-1.41a1.28,1.28,0,0,1-.3-.39,1.17,1.17,0,0,1-.1-.53V52.56a1.69,1.69,0,0,1,.15-.7,1.79,1.79,0,0,1,.38-.56,1.75,1.75,0,0,1,.57-.39,1.82,1.82,0,0,1,.7-.14h.54a1.77,1.77,0,0,1,.69.14"/><path class="cls-1" d="M69.72,55.86a1.18,1.18,0,0,1,.3.47,1.64,1.64,0,0,1,.1.6V59a1.64,1.64,0,0,1-.14.69,1.73,1.73,0,0,1-.38.57,1.92,1.92,0,0,1-.57.39,1.82,1.82,0,0,1-.7.14H66.2a.18.18,0,0,1-.2-.2V51.07a.18.18,0,0,1,.2-.2h2.13A1.82,1.82,0,0,1,69,51a1.75,1.75,0,0,1,.57.39A1.79,1.79,0,0,1,70,52a1.68,1.68,0,0,1,.14.7v1.42a1.55,1.55,0,0,1-.4,1.1,1.76,1.76,0,0,1-.51.37,1.42,1.42,0,0,1,.51.31m-1.26-3.13a.34.34,0,0,0-.34-.34h-.46v2.42h.46a.33.33,0,0,0,.24-.1.37.37,0,0,0,.1-.24Zm0,4a.37.37,0,0,0-.1-.24.33.33,0,0,0-.24-.1h-.46v3h.46a.37.37,0,0,0,.24-.1.37.37,0,0,0,.1-.25Z"/><path class="cls-1" d="M55.81,87.79l-4.3-1.58L41,97l.14.14a.66.66,0,0,0-.14.39v3.09a.69.69,0,0,0,.69.68H46.5a.68.68,0,0,0,.66-.54Zm-4-.37,2.43.9-7,10.53V97.54a.69.69,0,0,0-.69-.69H42.63Zm-6.32,12.85H42.75a.69.69,0,0,1-.69-.69v-1a.69.69,0,0,1,.69-.69h2.71a.69.69,0,0,1,.69.69v1A.69.69,0,0,1,45.46,100.27Z"/><rect class="cls-2" x="-34.42" y="-26.48" width="200.16" height="200"/><path class="cls-1" d="M72.05,30.67h0a20.34,20.34,0,0,0-12.84-.21C63.12,31.21,70.13,30.8,72.05,30.67Z"/><polygon class="cls-1" points="51.43 87.03 49.47 87.03 50.97 87.52 51.43 87.03"/><path class="cls-1" d="M46.25,87.05a.76.76,0,0,0-.42.15l-3.12,2.34a.83.83,0,0,0-.28.93.82.82,0,0,0,.78.56h4.34l2.64-2.71Z"/><polygon class="cls-1" points="79.75 87.03 79.86 87.15 80.22 87.03 79.75 87.03"/><path class="cls-1" d="M87.64,89.54,84.53,87.2A.82.82,0,0,0,84,87h-.55L80.63,88l3,3.08h3.54a.83.83,0,0,0,.5-1.49Z"/><polygon class="cls-1" points="71.06 91.03 78.1 91.03 76.85 89.17 71.06 91.03"/><polygon class="cls-1" points="54.01 89.55 53.02 91.03 58.62 91.03 54.01 89.55"/><path class="cls-1" d="M81.79,71h0a3.62,3.62,0,0,0,3.6-2.71,3.53,3.53,0,0,0-5.91-3.32A3.65,3.65,0,0,0,79,69.47,3.15,3.15,0,0,0,81.79,71Z"/><path class="cls-1" d="M48.7,70.83a3.53,3.53,0,0,0,2.5-6,3.46,3.46,0,0,0-2.48-1h0a3.55,3.55,0,0,0-3.22,5,3.46,3.46,0,0,0,3.19,2Z"/><path class="cls-1" d="M80,63.15a4.5,4.5,0,0,1,3.44-.2l0-13a1.83,1.83,0,0,0-1.82-1.85H80a16.51,16.51,0,0,1,1.84,7.64A16.25,16.25,0,0,1,80,63.15Z"/><path class="cls-1" d="M84.57,71.32a5.09,5.09,0,0,1-2.76.82h0A4.34,4.34,0,0,1,78,70.08,5.11,5.11,0,0,1,77.29,67a16.53,16.53,0,0,1-12,5.24h-.08a16.37,16.37,0,0,1-11.76-5c0,.06,0,.11,0,.17A4.65,4.65,0,0,1,52,70.66,4.7,4.7,0,0,1,48.7,72h0a4.84,4.84,0,0,1-2.61-.76,1.06,1.06,0,0,0-.53.9V73.5a1.09,1.09,0,0,0,1.08,1.08H84A1.08,1.08,0,0,0,85,73.5V72.17A1,1,0,0,0,84.57,71.32Z"/><path class="cls-1" d="M48.72,62.58h0a4.62,4.62,0,0,1,1.66.32A16.77,16.77,0,0,1,49.29,51a15.06,15.06,0,0,1,1.23-3.1H48.7a1.84,1.84,0,0,0-1.84,1.83L46.79,63A4.68,4.68,0,0,1,48.72,62.58Z"/></svg>