<svg xmlns="http://www.w3.org/2000/svg" xmlns:xlink="http://www.w3.org/1999/xlink" width="1920" height="4322" viewBox="0 0 1920 4322">
  <defs>
    <clipPath id="clip-_201227_2">
      <rect width="1920" height="4322"/>
    </clipPath>
  </defs>
  <g id="_201227_2" data-name="201227 – 2" clip-path="url(#clip-_201227_2)">
    <g id="Group_25" data-name="Group 25" transform="translate(0 -2576)">
      <rect id="Rectangle_20" data-name="Rectangle 20" width="2097" height="928" transform="matrix(0.809, -0.588, 0.588, 0.809, 325.773, 1756.18)" fill="#004d8e"/>
      <path id="Path_2" data-name="Path 2" d="M0,0H4236.6V1319.968H0Z" transform="matrix(0.809, -0.588, 0.588, 0.809, -1053.663, 4574.71)" fill="#f8cdce"/>
      <path id="Path_3" data-name="Path 3" d="M0,0H2528.546V676.325H0Z" transform="matrix(0.809, -0.588, 0.588, 0.809, -1102.591, 2761.479)" fill="#ec7c81"/>
      <rect id="Rectangle_22" data-name="Rectangle 22" width="1476" height="1236" transform="matrix(0.809, -0.588, 0.588, 0.809, -687.466, 1539.005)" fill="#f8cdce"/>
      <rect id="Rectangle_23" data-name="Rectangle 23" width="2359" height="1162" transform="matrix(0.809, -0.588, 0.588, 0.809, 1458.025, 1199.319)" fill="#ec7c81"/>
      <g id="Group_24" data-name="Group 24" transform="translate(1734.418 1672.896)">
        <path id="Path_9" data-name="Path 9" d="M0,0H2016.962V792.687H0Z" transform="matrix(0.809, -0.588, 0.588, 0.809, 0, 1185.541)" fill="#004d8e"/>
      </g>
      <path id="Path_14" data-name="Path 14" d="M0,0H2439.471V811.11H0Z" transform="matrix(0.809, -0.588, 0.588, 0.809, -573.832, 5633.113)" fill="#004d8e"/>
      <path id="Path_15" data-name="Path 15" d="M0,0H526.935V364.939H0Z" transform="matrix(0.809, -0.588, 0.588, 0.809, 1783.231, 5223.477)" fill="#f8cdce"/>
      <rect id="Rectangle_19" data-name="Rectangle 19" width="1240" height="336" transform="matrix(0.809, -0.588, 0.588, 0.809, -600.307, 74.358)" fill="#004d8e"/>
      <path id="Path_8" data-name="Path 8" d="M0,0H1978.452V1289.2H0Z" transform="matrix(0.809, -0.588, 0.588, 0.809, -718.373, 6637.732)" fill="#ec7c81"/>
      <path id="Path_9-2" data-name="Path 9" d="M0,0H3177.323V1248.72H0Z" transform="matrix(0.809, -0.588, 0.588, 0.809, -421.581, 7443.479)" fill="#004d8e"/>
    </g>
  </g>
</svg>
